PathFileType	4	(X/Y/Z)	Walk_125 04
DataRate	CameraRate	NumFrames	NumMarkers	Units	OrigDataRate	OrigDataStartFrame	OrigNumFrames
120	120	8	42	mm	120	408	128
Frame#	Time	LASI			RASI			LPSI			RPSI			RTH1			RTH2			RTH3			LTH1			LTH2			LTH3			RTB1			RTB2			RTB3			LTB1			LTB2			LTB3			RCAL			RTOE			RMT5			LCAL			LTOE			LMT5			LACR			RACR			CLAV			C7			RUA1			RUA2			RUA3			RLEL			RMEL			LUA1			LUA2			LUA3			LLEL			LMEL			RFAsuperior			RFAradius			RFAulna			LFAsuperior			LFAradius			LFAulna		
		X1	Y1	Z1	X2	Y2	Z2	X3	Y3	Z3	X4	Y4	Z4	X5	Y5	Z5	X6	Y6	Z6	X7	Y7	Z7	X8	Y8	Z8	X9	Y9	Z9	X10	Y10	Z10	X11	Y11	Z11	X12	Y12	Z12	X13	Y13	Z13	X14	Y14	Z14	X15	Y15	Z15	X16	Y16	Z16	X17	Y17	Z17	X18	Y18	Z18	X19	Y19	Z19	X20	Y20	Z20	X21	Y21	Z21	X22	Y22	Z22	X23	Y23	Z23	X24	Y24	Z24	X25	Y25	Z25	X26	Y26	Z26	X27	Y27	Z27	X28	Y28	Z28	X29	Y29	Z29	X30	Y30	Z30	X31	Y31	Z31	X32	Y32	Z32	X33	Y33	Z33	X34	Y34	Z34	X35	Y35	Z35	X36	Y36	Z36	X37	Y37	Z37	X38	Y38	Z38	X39	Y39	Z39	X40	Y40	Z40	X41	Y41	Z41	X42	Y42	Z42	

408	  3.400000	946.908218	1097.256389	-592.165800	941.763506	1108.900171	-329.789793	761.186302	1121.287982	-504.838981	757.358108	1120.891228	-421.434317	883.758142	934.811054	-275.250203	938.826477	829.568085	-286.284181	877.286155	710.841249	-322.293505	926.456144	882.511993	-638.565754	1016.382665	777.666180	-633.518613	976.761347	657.289163	-618.256348	940.312657	410.784263	-412.752489	916.848223	343.545675	-346.770335	909.945198	247.439401	-420.330866	969.405723	440.825529	-565.532979	882.138702	407.690810	-616.512982	814.215979	312.366683	-556.709178	775.251779	107.871232	-432.022619	1006.290372	 73.441388	-462.464146	941.371652	 50.103855	-364.138673	644.061165	300.838477	-533.629356	784.495501	114.297951	-547.009178	708.729897	152.713631	-624.169959	884.439348	1563.051155	-647.125505	883.028300	1572.217240	-299.936595	945.410164	1523.554733	-439.416176	814.554471	1606.020817	-471.918309	867.335252	1461.962440	-223.835729	870.145163	1369.207562	-230.987472	798.822929	1356.670974	-207.074006	773.995926	1222.822804	-174.961904	764.027193	1214.083919	-248.471742	874.226060	1459.413340	-712.430785	893.042054	1387.907999	-697.532854	804.021556	1353.349628	-697.667587	825.777110	1189.753974	-719.550149	795.812130	1187.960343	-649.311093	845.243165	1156.841953	-136.582362	957.803054	1007.366465	-151.692923	897.665590	991.981686	-110.016856	892.023830	1124.143127	-734.629553	959.162438	941.485352	-689.677032	905.044858	927.936833	-737.863711	
409	  3.408333	946.176234	1098.452597	-591.634942	940.519648	1109.729021	-329.341648	760.193023	1122.662353	-504.902433	756.533723	1122.165661	-421.521984	881.143661	935.619669	-274.950810	933.024914	830.254652	-285.391123	871.236024	711.709330	-321.880232	926.965865	884.783240	-638.318731	1020.168958	781.565123	-633.489045	982.843985	660.607365	-618.438096	931.493801	410.698318	-412.157144	907.463201	343.589891	-346.292583	900.382643	247.546053	-419.995049	980.549027	443.016581	-565.528719	894.386598	407.195554	-616.577190	829.908163	309.581461	-556.852276	765.101559	108.328984	-432.074286	995.935033	 73.427119	-462.291529	930.906722	 50.026607	-364.067133	659.217446	291.280987	-533.858172	808.616549	111.751963	-547.454123	731.190022	146.813389	-624.849958	883.510299	1563.753114	-647.432397	883.833669	1573.664775	-300.171867	945.279676	1524.501667	-439.896916	814.414633	1607.115452	-471.849120	868.575514	1463.744762	-223.746127	871.625784	1370.963462	-230.651996	800.563329	1358.373596	-205.999795	776.206381	1224.594216	-173.053548	765.639355	1215.593778	-246.569008	872.288631	1460.220904	-712.552172	890.662890	1388.649777	-697.847812	801.291215	1354.647764	-696.673465	821.964344	1190.954923	-719.177802	791.755442	1189.347207	-648.453612	848.976761	1159.644655	-135.429587	964.166049	1012.426390	-151.092077	904.542774	995.890670	-109.120996	887.442044	1124.806153	-735.058859	953.436427	941.455625	-691.066398	898.584742	928.423437	-738.479810	
410	  3.416667	945.429463	1099.421771	-591.109867	939.231921	1110.413139	-328.963577	759.247083	1123.855596	-505.057586	755.902687	1123.263528	-421.714583	878.609787	936.240368	-274.769215	929.126629	830.522734	-285.131637	865.139537	712.565391	-321.432232	927.692552	886.655519	-638.341621	1023.710469	785.306380	-633.401743	988.553144	663.803393	-618.656515	922.630564	410.666459	-411.505962	898.033024	343.689827	-345.763787	890.792919	247.726814	-419.646705	991.446468	445.108656	-565.493413	906.635768	406.325793	-616.639730	845.788170	306.403366	-556.948817	754.892717	108.773965	-432.107737	985.556173	 73.389756	-462.142672	920.435563	 49.950910	-364.003681	675.044015	281.060756	-534.201776	833.181833	109.261693	-548.210964	754.170590	140.521485	-625.485040	882.582206	1564.223056	-647.584169	884.560914	1574.982540	-300.437705	945.154154	1525.323968	-440.340373	814.292535	1608.090712	-471.773072	869.789726	1465.402902	-223.627685	872.971179	1372.555126	-230.405022	802.178047	1359.961228	-204.956429	778.329610	1226.236656	-171.178638	766.848721	1217.061114	-244.657319	870.392954	1460.903492	-712.670296	888.319933	1389.270886	-698.161082	798.585221	1355.841452	-695.623329	818.155665	1192.063964	-718.845411	786.750190	1190.737138	-647.424831	852.609750	1162.333267	-134.312348	970.345473	1017.355533	-150.693134	911.278937	999.726490	-108.269370	882.892667	1125.398263	-735.547651	947.759293	941.388049	-692.226170	892.182979	928.856942	-739.049503	
411	  3.425000	944.655074	1100.182476	-590.595853	937.905065	1110.901801	-328.649477	758.370296	1124.832740	-505.311174	755.223415	1124.199103	-421.934807	876.187321	936.622872	-274.866128	926.870663	830.263980	-285.571006	859.041998	713.385162	-320.978314	928.819599	888.150907	-638.781174	1027.023526	788.868222	-633.338194	993.873718	666.830206	-618.905802	913.694665	410.638042	-410.872753	888.528634	343.790768	-345.240602	881.126781	247.885451	-419.263959	1002.079707	447.095051	-565.378759	918.900540	405.109738	-616.732237	861.802312	302.893523	-557.044265	744.617910	109.223289	-432.083019	975.179475	 73.331840	-462.018185	909.960294	 49.875165	-363.966982	691.581151	270.328762	-534.645235	858.068570	106.757810	-549.252536	777.634595	133.913079	-626.091096	881.670285	1564.503902	-647.589611	885.205459	1576.174193	-300.728150	945.043410	1526.015162	-440.726288	814.195766	1608.931871	-471.707543	870.960704	1466.899928	-223.465886	874.191567	1373.968666	-230.222858	803.670237	1361.395803	-203.952045	780.377525	1227.719357	-169.331049	767.731373	1218.393412	-242.746840	868.549410	1461.456673	-712.811848	886.024597	1389.762926	-698.479141	795.939783	1356.905317	-694.565334	814.368778	1193.072583	-718.551051	781.426695	1192.072316	-646.377273	856.129369	1164.906568	-133.226401	976.248882	1022.059069	-150.642018	917.871862	1003.461109	-107.465481	878.386049	1125.905475	-736.062149	942.173385	941.289357	-693.190371	885.864315	929.230990	-739.582981	
412	  3.433333	943.841733	1100.752475	-590.123118	936.543125	1111.169242	-328.387923	757.546099	1125.588364	-505.643791	754.285760	1125.008416	-422.131846	873.918551	936.798057	-275.324029	925.020014	829.647039	-286.426968	852.970752	714.135936	-320.552693	930.350464	889.485584	-639.511687	1030.088435	792.237021	-633.330166	998.787455	669.649780	-619.155940	904.714898	410.586134	-410.327923	878.981419	343.862554	-344.778011	871.392841	247.945745	-418.814768	1012.422637	448.946147	-565.188111	931.159468	403.600383	-616.901342	877.945085	299.144492	-557.204722	734.302670	109.702023	-432.001105	964.834990	 73.279364	-461.888850	899.485874	 49.807136	-363.967625	708.823664	259.231287	-535.178336	883.178544	104.103998	-550.310368	801.567014	127.080014	-626.670128	880.827646	1564.686240	-647.578924	885.774503	1577.212147	-301.014549	944.949152	1526.561324	-441.049417	814.131407	1609.625816	-471.676122	872.047001	1468.201831	-223.277144	875.316973	1375.205408	-230.025125	805.044946	1362.650856	-202.986907	782.359750	1229.018615	-167.513532	768.650308	1219.446724	-240.889261	866.761830	1461.872931	-712.959183	883.785997	1390.121945	-698.805024	793.381661	1357.834394	-693.550088	810.628630	1193.974470	-718.293142	776.822089	1193.235249	-645.571719	859.528980	1167.336584	-132.172644	981.856804	1026.526971	-150.880927	924.318219	1007.065734	-106.737234	873.933202	1126.318354	-736.548251	936.703418	941.151511	-694.161795	879.653712	929.528544	-740.102995	
413	  3.441667	942.988159	1101.144908	-589.731695	935.154028	1111.225142	-328.158047	756.727355	1126.155314	-506.013710	752.960391	1125.733307	-422.293718	871.688973	936.899762	-275.953419	922.353839	828.990648	-287.272124	846.933614	714.802170	-320.175671	932.140856	890.878557	-640.243621	1032.874558	795.396414	-633.366359	1003.270059	672.244715	-619.380270	895.748024	410.520213	-409.892074	869.450098	343.914250	-344.405182	861.649487	247.931594	-418.352715	1022.441728	450.626500	-564.986000	943.354557	401.859462	-617.180009	894.243793	295.247497	-557.495030	723.983953	110.212235	-431.910857	954.534663	 73.273333	-461.721493	889.018081	 49.749177	-364.003917	726.760837	247.874380	-535.813223	908.472230	101.264503	-551.127747	825.965211	120.139254	-627.220964	880.098797	1564.835286	-647.683951	886.278395	1578.053380	-301.267180	944.869627	1526.949297	-441.325892	814.105048	1610.164609	-471.695934	873.019626	1469.285451	-223.094254	876.381804	1376.269093	-229.722850	806.309826	1363.714589	-202.054501	784.284578	1230.118362	-165.729789	770.004959	1220.118979	-239.125068	865.036601	1462.148681	-713.060893	881.617942	1390.345777	-699.138649	790.929772	1358.636762	-692.611394	806.967187	1194.765479	-718.080351	773.692151	1194.130555	-645.208450	862.817785	1169.577065	-131.147621	987.229318	1030.805682	-151.207795	930.613690	1010.509119	-106.121641	869.552266	1126.635132	-736.988096	931.335088	940.948012	-695.389038	873.572612	929.730512	-740.622846	
414	  3.450000	942.105756	1101.369269	-589.455027	933.752680	1111.107106	-327.940301	755.820090	1126.581554	-506.375057	751.191661	1126.396864	-422.434272	869.318178	937.075060	-276.381947	918.489351	828.528806	-287.824381	840.931519	715.400492	-319.851522	933.936482	892.333140	-640.751843	1035.358366	798.322198	-633.425662	1007.289405	674.611999	-619.575319	886.829885	410.459437	-409.534312	859.967617	343.971042	-344.136086	851.966424	247.982806	-418.099541	1032.100765	452.114220	-564.896500	955.416066	399.939023	-617.576831	910.718428	291.269243	-557.953027	713.691734	110.728347	-431.876123	944.259429	 73.338747	-461.517573	878.559892	 49.693641	-364.061866	745.391884	236.313183	-536.581639	933.969439	 98.398160	-551.661505	850.826006	113.237421	-627.757573	879.489494	1564.927209	-647.921954	886.721611	1578.668153	-301.476393	944.804378	1527.172270	-441.581909	814.118212	1610.547762	-471.766740	873.881062	1470.141112	-222.942102	877.406468	1377.152563	-229.286814	807.479432	1364.579054	-201.154717	786.165598	1231.008827	-163.970897	771.882922	1220.429266	-237.428415	863.394166	1462.288512	-713.082526	879.542493	1390.432562	-699.476339	788.598995	1359.320228	-691.760167	803.412498	1195.443287	-717.926024	772.025018	1194.748356	-645.292432	866.013106	1171.585947	-130.137297	992.447180	1034.926308	-151.456566	936.752046	1013.760430	-105.638212	865.266479	1126.858046	-737.415192	926.045083	940.655041	-696.967119	867.634979	929.827962	-741.135595	
415	  3.458333	941.210914	1101.433042	-589.309033	932.358813	1110.860309	-327.734098	754.693337	1126.895321	-506.697801	749.067762	1126.976633	-422.591362	866.749885	937.369675	-276.362310	913.878261	828.286330	-288.079017	834.972898	715.968080	-319.576526	935.432495	893.630348	-640.999736	1037.526595	800.984756	-633.501110	1010.810521	676.743244	-619.759363	877.947656	410.407633	-409.202190	850.513547	344.049812	-343.973589	842.379780	248.267296	-418.337041	1041.365926	453.406079	-565.066672	967.293940	397.869979	-618.081265	927.356225	287.252066	-558.568394	703.439359	111.225457	-431.926430	933.973999	 73.458470	-461.322060	868.107212	 49.630811	-364.124080	764.700740	224.580716	-537.506818	959.702061	 95.789273	-552.058850	876.131327	106.539110	-628.308424	878.975274	1564.864338	-648.194595	887.103193	1579.055477	-301.654591	944.754713	1527.228379	-441.836999	814.166822	1610.782459	-471.871134	874.655150	1470.769097	-222.827273	878.393481	1377.837329	-228.768206	808.576042	1365.230454	-200.298431	788.025407	1231.688340	-162.211323	773.972492	1220.499345	-235.720239	861.868856	1462.300340	-713.045605	877.585382	1390.382309	-699.807315	786.401156	1359.884945	-690.995374	799.978891	1196.005386	-717.833687	771.125793	1195.160238	-645.641402	869.127773	1173.341999	-129.126456	997.549313	1038.869336	-151.610535	942.724228	1016.796054	-105.274490	861.094930	1126.982559	-737.870427	920.839456	940.266681	-698.741753	861.848741	929.827046	-741.628713	
